<svg width="255" height="61" viewBox="0 0 255 61" fill="none" xmlns="http://www.w3.org/2000/svg">
<g clip-path="url(#clip0_793_1863)">
<g clip-path="url(#clip1_793_1863)">
<path d="M7.87316 8.7624L4.95117 8.185L6.89333 10.4071L4.95117 12.6292L7.87316 12.0518L8.82674 14.8426L9.78032 12.0518L12.6761 12.6292L10.7252 10.4071L12.6761 8.185L9.78032 8.7624L8.82674 5.96289L7.87316 8.7624ZM8.82674 8.09751L9.31665 9.54976L10.8214 9.25231L9.81531 10.4071L10.8214 11.5619L9.31665 11.2645L8.82674 12.708C8.62552 12.1393 8.32808 11.2645 8.32808 11.2645L6.83209 11.5619L7.83816 10.4071L6.80585 9.25231L8.30183 9.54976L8.80049 8.09751M14.9594 29.0588C15.1256 28.6826 15.2306 28.4377 15.3356 28.254C15.359 28.2129 15.3918 28.178 15.4313 28.1521C15.4709 28.1262 15.516 28.1102 15.5631 28.1052H15.6505V28.0002H14.8719C14.8633 28.0132 14.8587 28.0284 14.8587 28.044C14.8587 28.0596 14.8633 28.0748 14.8719 28.0877H14.9769C15.0819 28.0877 15.0994 28.149 15.0381 28.2977C14.8457 28.8051 14.627 29.3213 14.4258 29.7849L14.2245 29.3125L13.9621 28.6476C13.8872 28.4907 13.8286 28.3266 13.7871 28.1577C13.7871 28.1577 13.7871 28.114 13.8921 28.0877H13.9971C14.0045 28.0812 14.0105 28.0731 14.0146 28.064C14.0187 28.055 14.0208 28.0452 14.0208 28.0352C14.0208 28.0253 14.0187 28.0155 14.0146 28.0065C14.0105 27.9974 14.0045 27.9893 13.9971 27.9828H13.0697V28.079H13.1572C13.3059 28.079 13.3409 28.1665 13.4372 28.4114L14.0846 29.9774C14.1458 30.1261 14.207 30.3098 14.2508 30.4586H14.382C14.4432 30.2749 14.6182 29.8374 14.7669 29.4962L14.9594 29.0588ZM16.6216 29.9074C16.6216 30.3011 16.6216 30.3098 16.8228 30.3273H16.9016C16.9145 30.3418 16.9216 30.3605 16.9216 30.3798C16.9216 30.3992 16.9145 30.4179 16.9016 30.4323H15.9042C15.8913 30.4179 15.8842 30.3992 15.8842 30.3798C15.8842 30.3605 15.8913 30.3418 15.9042 30.3273H15.983C16.1579 30.3273 16.1842 30.3273 16.1842 29.9074V28.5252C16.1842 28.1315 16.1842 28.114 15.983 28.0965H15.9042V27.9915H16.8753V28.0965H16.7966C16.6304 28.0965 16.5954 28.0965 16.5954 28.5252L16.6216 29.9074ZM18.1001 28.2977C18.1001 28.149 18.1001 28.1402 18.0039 28.1402H17.8027C17.4702 28.1402 17.374 28.1402 17.234 28.4814C17.2175 28.4935 17.1976 28.5 17.1771 28.5C17.1567 28.5 17.1368 28.4935 17.1203 28.4814C17.1815 28.2802 17.234 28.0527 17.2603 27.9128H17.339C17.339 28.009 17.409 28.0177 17.6539 28.0177H19.1237C19.2986 28.0177 19.3511 28.0177 19.3949 27.9128C19.4117 27.906 19.4305 27.906 19.4474 27.9128C19.4028 28.1078 19.3823 28.3076 19.3861 28.5077C19.3717 28.5206 19.353 28.5277 19.3336 28.5277C19.3143 28.5277 19.2956 28.5206 19.2811 28.5077C19.2287 28.219 19.1674 28.149 18.7825 28.149H18.5725C18.4763 28.149 18.4763 28.149 18.4763 28.3064V29.9162C18.4763 30.3098 18.4763 30.3186 18.6775 30.3361H18.8087C18.8216 30.3505 18.8288 30.3692 18.8288 30.3886C18.8288 30.4079 18.8216 30.4266 18.8087 30.4411H17.7589C17.7515 30.4345 17.7455 30.4264 17.7414 30.4174C17.7373 30.4083 17.7352 30.3985 17.7352 30.3886C17.7352 30.3787 17.7373 30.3688 17.7414 30.3598C17.7455 30.3507 17.7515 30.3427 17.7589 30.3361H17.9076C18.0739 30.3361 18.1089 30.3361 18.1089 29.9162L18.1001 28.2977ZM20.5409 29.5837C20.6547 29.5837 20.6809 29.5837 20.7159 29.6887L20.8734 30.1349C20.9171 30.2923 20.8734 30.3186 20.7771 30.3273H20.6896C20.6767 30.3418 20.6696 30.3605 20.6696 30.3798C20.6696 30.3992 20.6767 30.4179 20.6896 30.4323H21.617C21.6299 30.4179 21.637 30.3992 21.637 30.3798C21.637 30.3605 21.6299 30.3418 21.617 30.3273H21.5645C21.372 30.3273 21.3545 30.2661 21.267 30.0211L20.7334 28.4639C20.6721 28.2977 20.6284 28.1315 20.5672 27.9565C20.5576 27.9519 20.5472 27.9495 20.5365 27.9495C20.5259 27.9495 20.5155 27.9519 20.5059 27.9565C20.4335 28.0348 20.3436 28.0947 20.2435 28.1315C20.2428 28.2263 20.2187 28.3194 20.1735 28.4027L19.6661 29.7237C19.5873 29.9249 19.5261 30.0824 19.4824 30.1786C19.4386 30.2749 19.3949 30.3361 19.2811 30.3536H19.1674C19.1545 30.368 19.1474 30.3867 19.1474 30.4061C19.1474 30.4254 19.1545 30.4441 19.1674 30.4586H19.9285V30.3536H19.8148C19.6748 30.3536 19.6661 30.3536 19.7361 30.0999L19.8673 29.715C19.8673 29.61 19.9198 29.61 20.016 29.61L20.5409 29.5837ZM20.121 29.4175C20.0335 29.4175 19.9985 29.4175 20.0598 29.26L20.2172 28.8226L20.3222 28.5252C20.3669 28.6206 20.4021 28.7202 20.4272 28.8226L20.5847 29.2688C20.5847 29.3913 20.5847 29.4175 20.4972 29.4175H20.121ZM14.452 32.6019V32.322C14.5371 32.2838 14.63 32.2658 14.7232 32.2695C15.2831 32.2695 15.6768 32.6282 15.6768 33.3631C15.6768 34.0979 15.4056 34.4566 14.8019 34.4566C14.4432 34.4566 14.417 34.2641 14.417 33.9055L14.452 32.6019ZM14.0583 34.0454C14.0583 34.4391 14.0583 34.4566 13.8746 34.4741H13.7959V34.5791H14.7144C15.0175 34.6012 15.3207 34.5375 15.5893 34.3954C15.7701 34.286 15.9183 34.13 16.0183 33.9438C16.1183 33.7576 16.1666 33.548 16.1579 33.3368C16.1725 33.1028 16.1137 32.87 15.9898 32.6709C15.866 32.4718 15.6832 32.3162 15.4668 32.2258C15.2141 32.1249 14.9424 32.0802 14.6707 32.0945C14.3793 32.0785 14.0873 32.0785 13.7959 32.0945C13.7857 32.1102 13.7803 32.1284 13.7803 32.147C13.7803 32.1657 13.7857 32.1839 13.7959 32.1995H13.8658C14.0321 32.1995 14.0321 32.2695 14.0321 32.6282L14.0583 34.0454ZM16.6216 32.6632C16.6216 32.2782 16.6216 32.2608 16.4204 32.2345H16.3592C16.3517 32.2279 16.3457 32.2199 16.3417 32.2108C16.3376 32.2018 16.3355 32.1919 16.3355 32.182C16.3355 32.1721 16.3376 32.1623 16.3417 32.1532C16.3457 32.1442 16.3517 32.1361 16.3592 32.1295H17.304C17.3169 32.144 17.324 32.1626 17.324 32.182C17.324 32.2014 17.3169 32.2201 17.304 32.2345H17.2165C17.0503 32.2345 17.024 32.2345 17.024 32.6632V33.538C17.024 34.0367 17.1728 34.4741 17.6714 34.4741C18.1701 34.4741 18.3363 34.1067 18.3363 33.5468V33.0744C18.357 32.8301 18.3333 32.5841 18.2663 32.3482C18.2456 32.3208 18.2192 32.2981 18.1891 32.2815C18.1589 32.2649 18.1256 32.2549 18.0914 32.252H18.0214V32.147H18.8C18.8074 32.1536 18.8134 32.1617 18.8175 32.1707C18.8216 32.1798 18.8237 32.1896 18.8237 32.1995C18.8237 32.2094 18.8216 32.2193 18.8175 32.2283C18.8134 32.2374 18.8074 32.2454 18.8 32.252H18.7212C18.66 32.252 18.59 32.252 18.5638 32.3395C18.5213 32.579 18.5067 32.8227 18.52 33.0656V33.5118C18.5535 33.824 18.4659 34.1372 18.2751 34.3866C18.1867 34.4825 18.0779 34.5574 17.9568 34.6058C17.8357 34.6543 17.7053 34.675 17.5752 34.6666C17.4417 34.6797 17.3069 34.6655 17.1791 34.6249C17.0513 34.5843 16.933 34.5181 16.8316 34.4304C16.7406 34.3204 16.6727 34.1933 16.6321 34.0564C16.5916 33.9196 16.579 33.776 16.5954 33.6343L16.6216 32.6632ZM19.8848 32.6632C19.8848 32.2782 19.8848 32.2695 20.086 32.2433H20.1647V32.1295H19.1762V32.2433H19.2462C19.4211 32.2433 19.4474 32.2433 19.4474 32.6632V34.0454C19.4474 34.4304 19.4474 34.4479 19.2462 34.4654H19.1412V34.5703H20.8909C20.9565 34.3973 21.0062 34.2187 21.0396 34.0367C21.033 34.0292 21.0249 34.0233 21.0159 34.0192C21.0068 34.0151 20.997 34.013 20.9871 34.013C20.9772 34.013 20.9673 34.0151 20.9583 34.0192C20.9492 34.0233 20.9412 34.0292 20.9346 34.0367C20.7684 34.4129 20.7071 34.4304 20.3047 34.4304C19.9023 34.4304 19.9635 34.4304 19.9198 34.3516C19.8619 34.2322 19.8406 34.0982 19.8585 33.9667L19.8848 32.6632Z" fill="#AE9142"/>
<path d="M36.5164 24.9997V23.0488C34.2918 23.8109 31.9082 23.9857 29.5963 23.5562C25.4408 22.9613 23.7174 24.0986 23.7174 24.0986C23.7174 24.0986 21.9677 22.9613 17.8297 23.5562C15.5178 23.9857 13.1342 23.8109 10.9096 23.0488V24.9997H9.74609V39.7934H21.819C22.0624 40.0478 22.3583 40.2461 22.6862 40.3745C23.014 40.503 23.3659 40.5584 23.7174 40.537C24.0675 40.5577 24.4179 40.5019 24.7442 40.3735C25.0705 40.2451 25.365 40.0471 25.607 39.7934H37.6799V24.9997H36.5164ZM23.21 38.3061C23.21 38.3061 21.7402 37.3088 17.5847 37.8425C13.4292 38.3761 11.9332 37.4138 11.9332 37.4138V24.4223C11.9332 24.4223 13.6829 25.1135 17.8472 24.5798C22.0114 24.0462 23.21 25.0435 23.21 25.0435V38.3061ZM35.5103 37.4313C35.5103 37.4313 34.0056 38.3849 29.85 37.8512C25.6945 37.3176 24.2335 38.3149 24.2335 38.3149V25.0522C24.2335 25.0522 25.4408 24.0549 29.5963 24.5886C33.7519 25.1222 35.5103 24.4223 35.5103 24.4223V37.4313Z" fill="#AE9142"/>
<path d="M27.1206 28.6393C27.1149 28.6466 27.1076 28.6525 27.0993 28.6566C27.0909 28.6606 27.0818 28.6627 27.0725 28.6627C27.0632 28.6627 27.0541 28.6606 27.0458 28.6566C27.0374 28.6525 27.0301 28.6466 27.0244 28.6393C27.0011 28.4926 26.9252 28.3593 26.811 28.2644C26.6967 28.1694 26.5518 28.1192 26.4033 28.1232C25.9921 28.1232 25.5896 28.4469 25.5896 29.1642C25.5896 29.8816 26.0096 30.2841 26.4207 30.2841C26.5745 30.2803 26.7229 30.2273 26.8442 30.1328C26.9655 30.0382 27.0532 29.9073 27.0944 29.7591C27.1001 29.7519 27.1074 29.746 27.1158 29.7419C27.1241 29.7379 27.1332 29.7358 27.1425 29.7358C27.1518 29.7358 27.1609 29.7379 27.1692 29.7419C27.1776 29.746 27.1849 29.7519 27.1906 29.7591C27.1706 29.945 27.1172 30.1258 27.0331 30.2928H26.9194C26.7587 30.3474 26.5905 30.3769 26.4207 30.3803C26.1312 30.3911 25.8459 30.3083 25.6071 30.1441C25.4567 30.0326 25.3364 29.8855 25.257 29.716C25.1776 29.5465 25.1416 29.3599 25.1522 29.173C25.147 28.9971 25.1803 28.8221 25.2498 28.6604C25.3194 28.4987 25.4234 28.3542 25.5547 28.2369C25.8048 28.0428 26.1128 27.9381 26.4295 27.9395C26.6159 27.9416 26.8011 27.9681 26.9806 28.0182H27.0681C27.0681 28.1057 27.0681 28.3069 27.1119 28.5694M27.7505 28.5256C27.7505 28.1319 27.7505 28.1144 27.5493 28.0882H27.4881V27.9832H29.0715C29.0715 28.0357 29.0715 28.3331 29.1328 28.4906C29.1254 28.4983 29.1166 28.5044 29.1068 28.5086C29.097 28.5127 29.0865 28.5149 29.0759 28.5149C29.0653 28.5149 29.0548 28.5127 29.045 28.5086C29.0352 28.5044 29.0264 28.4983 29.019 28.4906C28.9578 28.2719 28.9053 28.1844 28.7916 28.1494C28.6956 28.1404 28.5989 28.1404 28.5029 28.1494H28.3104C28.1617 28.1494 28.1617 28.1494 28.1617 28.3681V29.0418C28.1617 29.138 28.1617 29.138 28.2404 29.138H28.3629C28.6778 29.138 28.7391 29.138 28.7653 28.9718V28.8406H28.8791C28.8966 28.8406 28.8791 29.068 28.8791 29.2167V29.6017C28.8791 29.7154 28.7916 29.6017 28.7653 29.6017V29.453C28.7653 29.2955 28.6778 29.2867 28.3629 29.2867H28.2404C28.1617 29.2867 28.1617 29.2867 28.1617 29.383V29.8379C28.1617 30.0303 28.1617 30.1616 28.2229 30.2228C28.2842 30.2841 28.2754 30.3103 28.5729 30.3103C29.0365 30.3103 29.0628 30.2053 29.1853 29.9079C29.1926 29.9002 29.2014 29.8941 29.2112 29.8899C29.221 29.8857 29.2315 29.8836 29.2421 29.8836C29.2528 29.8836 29.2633 29.8857 29.273 29.8899C29.2828 29.8941 29.2916 29.9002 29.299 29.9079C29.2697 30.0936 29.2198 30.2755 29.1503 30.4503H27.4006C27.3931 30.4437 27.3872 30.4356 27.3831 30.4266C27.379 30.4175 27.3769 30.4077 27.3769 30.3978C27.3769 30.3879 27.379 30.378 27.3831 30.369C27.3872 30.3599 27.3931 30.3519 27.4006 30.3453H27.5318C27.7068 30.3453 27.733 30.3453 27.733 29.9166L27.7505 28.5256ZM30.2526 28.4556V28.1757C30.2526 28.1494 30.2526 28.1319 30.4013 28.1319C30.9787 28.1319 31.3724 28.4819 31.3724 29.2167C31.3724 29.9516 31.0924 30.3103 30.4975 30.3103C30.1301 30.3103 30.2263 30.1178 30.2263 29.7591L30.2526 28.4556ZM29.8589 29.8991C29.8589 30.3015 29.8589 30.3103 29.6664 30.3278H29.5877V30.4328H30.4625C30.7359 30.4463 31.0079 30.3859 31.2499 30.2578C31.4405 30.153 31.5991 29.9983 31.7085 29.8103C31.8179 29.6223 31.8741 29.408 31.871 29.1905C31.8849 28.9554 31.8248 28.7219 31.6993 28.5227C31.5738 28.3235 31.3891 28.1685 31.1712 28.0794C30.9317 27.9865 30.6754 27.9447 30.4188 27.957H29.6227C29.6098 27.9714 29.6026 27.9901 29.6026 28.0095C29.6026 28.0288 29.6098 28.0475 29.6227 28.0619H29.6927C29.8589 28.0619 29.8589 28.1232 29.8589 28.4819V29.8991ZM33.3583 28.0882C33.9007 28.0882 34.1194 28.7356 34.1194 29.2955C34.1194 30.0391 33.8132 30.354 33.4283 30.354C32.8596 30.354 32.6584 29.6629 32.6584 29.1468C32.6584 28.3594 33.0258 28.0882 33.3583 28.0882ZM33.3583 27.9395C33.1916 27.9413 33.0271 27.9774 32.875 28.0455C32.7229 28.1137 32.5864 28.2123 32.4741 28.3353C32.3617 28.4584 32.2758 28.6032 32.2217 28.7609C32.1676 28.9185 32.1465 29.0856 32.1597 29.2517C32.1501 29.4141 32.1741 29.5767 32.2302 29.7294C32.2863 29.882 32.3733 30.0215 32.4859 30.1389C32.5984 30.2564 32.734 30.3493 32.8841 30.4119C33.0342 30.4745 33.1956 30.5055 33.3583 30.5028C33.521 30.5007 33.6817 30.4656 33.8304 30.3994C33.9792 30.3333 34.1129 30.2375 34.2234 30.118C34.3339 29.9985 34.4189 29.8577 34.4732 29.7043C34.5275 29.5508 34.55 29.3879 34.5393 29.2255C34.5539 29.0618 34.5342 28.8969 34.4814 28.7412C34.4287 28.5856 34.344 28.4427 34.2328 28.3216C34.1217 28.2006 33.9865 28.1041 33.8359 28.0383C33.6853 27.9725 33.5226 27.9388 33.3583 27.9395ZM26.0621 34.4833C25.9825 34.3048 25.9465 34.1099 25.9571 33.9147C25.9636 33.9072 25.9717 33.9012 25.9808 33.8972C25.9898 33.8931 25.9996 33.891 26.0096 33.891C26.0195 33.891 26.0293 33.8931 26.0384 33.8972C26.0474 33.9012 26.0555 33.9072 26.0621 33.9147C26.132 34.1071 26.3333 34.5008 26.6832 34.5008C26.738 34.5071 26.7936 34.5015 26.8461 34.4845C26.8986 34.4674 26.9468 34.4392 26.9875 34.4019C27.0281 34.3646 27.0603 34.3189 27.0818 34.2681C27.1032 34.2172 27.1135 34.1623 27.1119 34.1071C27.1104 33.9907 27.0749 33.8772 27.0096 33.7808C26.9442 33.6844 26.8521 33.6092 26.7444 33.5647L26.587 33.4772C26.4466 33.413 26.3258 33.3129 26.2367 33.1869C26.1476 33.0609 26.0933 32.9136 26.0796 32.7599C26.0796 32.3924 26.3508 32.0862 26.8757 32.0862C27.0411 32.0911 27.2054 32.1146 27.3656 32.1562C27.4151 32.3179 27.4416 32.4858 27.4443 32.6549C27.437 32.6626 27.4281 32.6687 27.4184 32.6728C27.4086 32.677 27.3981 32.6792 27.3875 32.6792C27.3768 32.6792 27.3663 32.677 27.3565 32.6728C27.3468 32.6687 27.3379 32.6626 27.3306 32.6549C27.3127 32.5355 27.2542 32.426 27.1649 32.3447C27.0757 32.2635 26.9612 32.2154 26.8407 32.2087C26.7869 32.2036 26.7327 32.2102 26.6817 32.2279C26.6306 32.2456 26.584 32.2741 26.545 32.3115C26.506 32.3489 26.4755 32.3942 26.4556 32.4444C26.4356 32.4946 26.4267 32.5485 26.4295 32.6024C26.441 32.7018 26.4798 32.7961 26.5415 32.8748C26.6033 32.9536 26.6856 33.0137 26.7794 33.0486L26.9981 33.1798C27.1416 33.2411 27.2646 33.3419 27.3529 33.4705C27.4412 33.599 27.4911 33.7501 27.4968 33.9059C27.4975 34.0147 27.4741 34.1222 27.4281 34.2208C27.3822 34.3194 27.315 34.4066 27.2313 34.4761C27.1476 34.5456 27.0495 34.5956 26.9442 34.6225C26.8388 34.6495 26.7287 34.6528 26.622 34.632C26.4127 34.6371 26.2064 34.5825 26.0271 34.4746M28.1879 32.6899C28.1879 32.3487 28.1879 32.2962 28.0305 32.2787H27.8992V32.1737C28.1642 32.1542 28.4303 32.1542 28.6953 32.1737C28.9547 32.1583 29.2137 32.2095 29.4477 32.3224C29.5428 32.3814 29.6209 32.4639 29.6746 32.562C29.7283 32.6602 29.7556 32.7705 29.7539 32.8823C29.7495 32.9827 29.725 33.0812 29.6819 33.172C29.6388 33.2628 29.5779 33.344 29.5029 33.4109C29.4279 33.4778 29.3402 33.5289 29.2451 33.5613C29.15 33.5938 29.0493 33.6068 28.9491 33.5997H28.8703C28.8604 33.5873 28.855 33.5719 28.855 33.556C28.855 33.5401 28.8604 33.5246 28.8703 33.5122C29.0079 33.4846 29.1301 33.4064 29.2127 33.293C29.2954 33.1796 29.3324 33.0393 29.3165 32.8998C29.3239 32.8278 29.316 32.755 29.2934 32.6862C29.2707 32.6173 29.2339 32.5541 29.1852 32.5004C29.1365 32.4468 29.0771 32.404 29.0108 32.3748C28.9445 32.3457 28.8728 32.3308 28.8003 32.3312C28.6254 32.3312 28.6254 32.3312 28.6254 32.4887V34.1071C28.6254 34.5008 28.6254 34.5183 28.8178 34.5358H28.9491V34.6408H27.9255V34.5358H27.9955C28.1617 34.5358 28.1967 34.5358 28.1967 34.1071L28.1879 32.6899ZM30.3138 34.0459C30.3138 34.4396 30.3138 34.4571 30.1126 34.4746H29.9726V34.5795H31.7223C31.7991 34.4097 31.852 34.2302 31.8798 34.0459C31.8625 34.0317 31.8409 34.0239 31.8185 34.0239C31.7962 34.0239 31.7745 34.0317 31.7573 34.0459C31.6348 34.3433 31.5998 34.4483 31.1449 34.4396C30.8387 34.4396 30.7775 34.4396 30.7337 34.3608C30.6758 34.2414 30.6545 34.1074 30.6725 33.9759V33.5647C30.6725 33.4685 30.6725 33.4597 30.76 33.4597H30.935C31.2499 33.4597 31.3111 33.4597 31.3374 33.626V33.7747H31.4599C31.4774 33.7747 31.4599 33.5297 31.4599 33.381V33.0223C31.4599 32.9261 31.3724 33.0223 31.3374 33.0223V33.1448C31.3374 33.311 31.2499 33.311 30.935 33.311H30.76C30.6812 33.311 30.6725 33.311 30.6725 33.2148V32.4624C30.6725 32.2525 30.6725 32.2437 30.83 32.2437H31.0749C31.1677 32.2298 31.2621 32.2298 31.3549 32.2437C31.4774 32.2437 31.5298 32.3662 31.5823 32.5761H31.6961C31.6961 32.4187 31.6961 32.1212 31.6436 32.06H30.0601V32.1737H30.1213C30.2876 32.1737 30.3226 32.1737 30.3226 32.6024L30.3138 34.0459ZM32.3697 34.4833C32.2859 34.3061 32.2497 34.1101 32.2647 33.9147H32.3784C32.4484 34.1071 32.6322 34.5008 32.9908 34.5008C33.0453 34.5073 33.1005 34.5017 33.1526 34.4846C33.2047 34.4675 33.2524 34.4392 33.2924 34.4017C33.3324 34.3642 33.3637 34.3184 33.3842 34.2675C33.4046 34.2166 33.4137 34.1619 33.4108 34.1071C33.409 33.9919 33.3743 33.8796 33.3107 33.7835C33.2471 33.6874 33.1574 33.6115 33.0521 33.5647L32.8946 33.4772C32.7543 33.413 32.6334 33.3129 32.5443 33.1869C32.4552 33.0609 32.401 32.9136 32.3872 32.7599C32.3872 32.3924 32.6496 32.0862 33.1746 32.0862C33.3429 32.0905 33.5102 32.114 33.6732 32.1562C33.7193 32.3184 33.7429 32.4862 33.7432 32.6549H33.6295C33.6135 32.5363 33.5567 32.4269 33.4689 32.3455C33.3811 32.2641 33.2678 32.2158 33.1483 32.2087C33.0945 32.2036 33.0403 32.2102 32.9893 32.2279C32.9383 32.2456 32.8917 32.2741 32.8527 32.3115C32.8137 32.3489 32.7831 32.3942 32.7632 32.4444C32.7433 32.4946 32.7344 32.5485 32.7371 32.6024C32.7479 32.7008 32.7853 32.7944 32.8455 32.8731C32.9056 32.9517 32.9861 33.0124 33.0783 33.0486L33.3058 33.1798C33.4482 33.2415 33.57 33.3426 33.6568 33.4713C33.7436 33.6 33.7918 33.7508 33.7957 33.9059C33.7954 34.0103 33.7728 34.1135 33.7294 34.2085C33.6861 34.3035 33.623 34.3882 33.5443 34.4569C33.4657 34.5256 33.3733 34.5768 33.2733 34.607C33.1734 34.6372 33.0681 34.6457 32.9646 34.632C32.7554 34.6371 32.549 34.5825 32.3697 34.4746" fill="#AE9142"/>
<path d="M23.7083 1.51953H0V23.0757C0 43.6259 13.0614 54.6314 23.7083 60.6329C34.3639 54.6314 47.4254 43.6259 47.4254 23.0757V1.51953H23.7083ZM23.7083 56.8535C22.5087 56.1726 21.341 55.437 20.2089 54.6489C21.261 53.9922 22.4687 53.6269 23.7083 53.5903C24.948 53.6269 26.1556 53.9922 27.2077 54.6489C26.0004 55.5238 24.8544 56.1886 23.7083 56.8535ZM31.9406 50.9308C31.5484 51.3469 31.0388 51.6337 30.4796 51.7532C30.19 51.7984 29.8978 51.8247 29.6048 51.8319C27.1989 51.8319 26.6565 50.3884 23.7171 50.3884C20.7776 50.3884 20.2177 51.8319 17.8206 51.8319C17.5276 51.8249 17.2353 51.7986 16.9458 51.7532C16.3866 51.6337 15.877 51.3469 15.4848 50.9308C14.3026 49.8926 13.1974 48.7698 12.1779 47.5714C14.3912 47.5714 14.9424 48.9187 17.8119 48.9187C20.2264 48.9187 20.7601 47.4664 23.7083 47.4664C26.6565 47.4664 27.2077 48.9187 29.596 48.9187C32.4743 48.9187 33.0079 47.5802 35.23 47.5714C34.2158 48.7717 33.1133 49.8947 31.9319 50.9308M44.1797 23.4082C44.2832 30.9432 41.9986 38.3176 37.6534 44.4744C37.0373 44.2773 36.393 44.1827 35.7462 44.1945C33.2791 44.1945 32.5443 45.638 29.6223 45.638C27.8726 45.638 27.0765 44.8506 25.6155 44.4395V40.9401C25.6155 40.9401 25.1781 41.5525 23.7258 41.5525C22.2736 41.5525 21.8711 40.8876 21.8711 40.8876V44.387C20.4101 44.7981 19.649 45.5942 17.8643 45.5942C14.9249 45.5942 14.19 44.142 11.7404 44.142C11.0908 44.1298 10.4435 44.2243 9.82452 44.422C5.46107 38.2906 3.15464 30.9333 3.23693 23.4082V4.75646H44.1884L44.1797 23.4082Z" fill="#AE9142"/>
<path d="M25.5978 19.253H33.7601L36.5159 20.8453V14.3452L33.7601 15.9374H25.6066V9.62975L27.2076 6.86523H20.2088L21.871 9.62975V15.9374H13.6649L10.9092 14.3452V20.8453L13.6649 19.253H21.871V22.5687C22.5285 22.6499 23.1675 22.8422 23.7607 23.1374C24.3534 22.8413 24.9926 22.6489 25.6503 22.5687V19.253H25.5978ZM20.6025 33.3818H20.7162C20.7162 33.2856 20.7949 33.1631 20.9437 33.1631C21.0335 33.1737 21.1201 33.2035 21.1974 33.2506C21.4948 33.3818 21.5298 33.3993 21.626 33.3993C21.7223 33.3993 21.976 33.2768 22.011 32.9881H21.906C21.906 33.1456 21.801 33.2243 21.6785 33.2243C21.5561 33.2243 21.591 33.2243 21.3373 33.0931C21.2162 33.0234 21.0824 32.9788 20.9437 32.9619C20.9437 32.9619 20.6375 32.9619 20.5762 33.3643" fill="#AE9142"/>
<path d="M73.3648 34.8515C73.3648 35.7264 73.3648 39.3132 73.4436 39.9869C73.3284 40.1351 73.1768 40.2508 73.0035 40.3229C72.8303 40.395 72.6413 40.4209 72.455 40.398C71.9913 39.7856 71.1427 38.7971 69.0431 36.4L62.2105 28.6051C60.3121 26.4792 59.376 25.3682 58.8861 24.9308C58.7986 24.9308 58.7986 25.2545 58.7986 26.8029V32.4632C58.7986 34.6503 58.7986 37.3361 59.3235 38.2197C59.5031 38.4423 59.7293 38.6228 59.9864 38.7483C60.2434 38.8737 60.5248 38.9412 60.8108 38.9458L61.4494 39.0245C61.7119 39.2345 61.6856 39.7944 61.3969 39.8994C60.3121 39.8381 59.1748 39.8119 58.0638 39.8119C56.9527 39.8119 56.0516 39.8119 55.0368 39.8994C54.9734 39.8473 54.9213 39.7828 54.8836 39.7098C54.846 39.6369 54.8236 39.557 54.8179 39.4751C54.8121 39.3933 54.8232 39.3111 54.8503 39.2336C54.8774 39.1561 54.92 39.085 54.9756 39.0245L55.6142 38.8933C56.1741 38.7971 56.6903 38.6833 56.909 38.2197C57.2764 37.3448 57.2764 34.7203 57.2764 32.4632V25.5694C57.2764 23.2948 57.2764 22.8311 56.3141 21.9825C55.8353 21.7065 55.3155 21.5087 54.7743 21.3964L54.3282 21.3089C54.127 21.1427 54.1532 20.5565 54.4507 20.4341C55.553 20.5478 57.1627 20.5215 57.8975 20.5215C58.5012 20.5215 59.2011 20.5215 59.9009 20.4341C60.4084 21.6938 63.584 25.3594 64.5989 26.4705L67.5209 29.6199C68.7544 30.976 71.4577 34.0554 71.7551 34.2391C71.8426 34.1516 71.8426 34.0029 71.8426 33.5305V27.844C71.8426 25.6569 71.8426 22.9711 71.2827 22.0963C71.112 21.8719 70.8926 21.6892 70.641 21.5619C70.3895 21.4346 70.1123 21.3661 69.8304 21.3614L69.1568 21.2739C68.8944 21.0814 68.9206 20.5215 69.2181 20.3991C70.3466 20.4516 71.4314 20.4866 72.5687 20.4866C73.706 20.4866 74.5809 20.4866 75.6394 20.3991C75.7045 20.4503 75.758 20.5147 75.7964 20.588C75.8348 20.6614 75.8572 20.742 75.8622 20.8247C75.8671 20.9074 75.8545 20.9901 75.8252 21.0676C75.7958 21.145 75.7504 21.2153 75.6919 21.2739L75.0183 21.4314C74.4671 21.5101 73.9772 21.6326 73.7672 22.0963C73.3648 22.9711 73.3648 25.5344 73.3648 27.844V34.8515ZM87.791 21.2564C92.4365 21.2564 94.4224 26.3655 94.4224 30.766C94.4224 36.6362 91.7366 39.1208 88.4122 39.1208C83.4168 39.1208 81.6933 33.6267 81.6933 29.6024C81.6933 23.391 84.8778 21.2564 87.8173 21.2564M88.2022 20.0929C86.8215 20.0332 85.4434 20.2591 84.154 20.7565C82.8646 21.2539 81.6918 22.012 80.7088 22.9835C79.7259 23.9549 78.954 25.1187 78.4415 26.4022C77.929 27.6856 77.6869 29.061 77.7303 30.4423C77.7303 35.6914 81.5184 40.2756 88.1235 40.2756C94.0024 40.2756 98.3854 35.9976 98.3854 30.2411C98.3854 24.9308 94.886 20.0929 88.176 20.0929M107.414 23.0061C107.414 21.7813 107.414 21.7288 106.635 21.7288H105.76C103.083 21.7288 102.261 22.0525 101.211 24.4059C101.057 24.4897 100.878 24.5155 100.706 24.4786C100.534 24.4417 100.381 24.3445 100.275 24.2046C100.727 22.7666 101.107 21.3066 101.412 19.8304C101.455 19.7903 101.507 19.7602 101.563 19.742C101.618 19.7239 101.678 19.7182 101.736 19.7254C101.789 19.7198 101.843 19.7264 101.893 19.7446C101.943 19.7628 101.988 19.7921 102.025 19.8304C102.182 20.5653 102.585 20.6003 104.571 20.6003H114.92C116.346 20.6003 116.783 20.5128 117.142 19.8304C117.247 19.7723 117.364 19.7366 117.483 19.7254C117.554 19.7184 117.625 19.7273 117.692 19.7515C117.758 19.7758 117.819 19.8147 117.868 19.8654C117.544 21.3919 117.397 22.9507 117.431 24.5108C117.317 24.6232 117.168 24.6932 117.009 24.7091C116.85 24.725 116.69 24.6859 116.556 24.5983C116.18 22.315 115.629 21.7726 112.505 21.7726H111.631C110.861 21.7726 110.834 21.8251 110.834 23.0499V35.6214C110.834 38.7096 111.106 38.7971 112.479 38.9458L113.52 39.0508C113.627 39.1749 113.681 39.3356 113.671 39.4988C113.661 39.6621 113.588 39.8152 113.468 39.9256C111.771 39.8644 110.458 39.8381 109.172 39.8381C107.886 39.8381 106.548 39.8381 104.649 39.9256C104.532 39.8129 104.462 39.6605 104.452 39.4984C104.443 39.3364 104.494 39.1766 104.597 39.0508L105.822 38.9196C107.186 38.7971 107.449 38.7096 107.449 35.6214L107.414 23.0061ZM126.512 23.0674C126.512 21.7288 126.512 21.6326 128.06 21.6326C130.597 21.6326 132.093 23.6447 132.093 25.9543C132.093 28.7276 130.772 30.1274 127.911 30.1274C126.512 30.1274 126.512 30.0749 126.512 29.1388V23.0674ZM123.126 35.6214C123.126 38.7096 122.872 38.7971 121.499 38.972L120.851 39.0508C120.793 39.11 120.749 39.1808 120.72 39.2586C120.691 39.3363 120.68 39.4193 120.685 39.502C120.691 39.5846 120.714 39.6652 120.754 39.7382C120.793 39.8112 120.847 39.8751 120.913 39.9256C122.251 39.8644 123.537 39.8381 124.849 39.8381C126.162 39.8381 127.474 39.8381 128.725 39.9256C128.849 39.8176 128.925 39.6648 128.936 39.5009C128.948 39.3369 128.894 39.175 128.786 39.0508L128.148 38.972C126.774 38.7971 126.512 38.7096 126.512 35.6214V31.8858C126.512 31.2647 126.512 31.2384 127.387 31.2384C127.756 31.1685 128.139 31.2288 128.469 31.409C128.799 31.5892 129.056 31.8783 129.197 32.227C129.897 33.3643 130.72 34.9827 131.507 36.1988C133.257 38.9196 134.805 40.0569 137.631 40.0569C138.278 40.0769 138.924 40.0152 139.556 39.8731C139.605 39.7819 139.625 39.678 139.614 39.575C139.603 39.472 139.561 39.3747 139.494 39.2957C138.753 39.206 138.054 38.902 137.482 38.4209C136.117 37.2748 134.648 34.8078 132.321 30.8622C132.207 30.6873 132.154 30.451 132.321 30.3636C133.755 29.7774 135.82 28.4389 135.82 25.7531C135.846 24.872 135.618 24.0019 135.162 23.2477C134.705 22.4934 134.041 21.887 133.248 21.5014C131.514 20.73 129.623 20.3764 127.728 20.4691C125.339 20.4691 122.855 20.5565 121.018 20.7315C120.914 20.8418 120.857 20.9872 120.857 21.1383C120.857 21.2894 120.914 21.4349 121.018 21.5451L121.77 21.6326C123.144 21.7813 123.17 22.1313 123.17 24.9308L123.126 35.6214ZM144.507 24.7646C144.507 21.6676 144.245 21.5714 142.871 21.3789L142.408 21.3089C142.215 21.1164 142.233 20.5828 142.469 20.4341C143.02 20.4341 143.632 20.4866 144.28 20.4866H151.803C153.676 20.4866 155.373 20.4866 155.749 20.3991C155.863 20.8977 156.038 23.1986 156.213 24.4496C156.09 24.6946 155.513 24.7471 155.277 24.5721C154.813 22.8749 154.402 22.1488 153.439 21.9475C152.676 21.7573 151.89 21.6719 151.104 21.6938H149.153C147.893 21.6938 147.893 21.7463 147.893 23.4435V28.3777C147.893 29.1388 147.893 29.165 148.602 29.165H149.993C152.538 29.165 153.037 29.165 153.238 27.879L153.439 26.8904C153.676 26.6805 154.227 26.6805 154.376 26.8904C154.376 27.6778 154.297 28.7276 154.297 29.8124C154.297 30.8972 154.349 31.947 154.376 32.8744C154.238 32.9708 154.075 33.0225 153.907 33.0225C153.74 33.0225 153.576 32.9708 153.439 32.8744L153.238 31.7108C153.037 30.486 152.538 30.4248 149.993 30.4248H148.602C147.919 30.4248 147.893 30.486 147.893 31.2122V34.9215C147.893 36.4087 147.945 37.4586 148.392 37.9572C148.838 38.4559 149.266 38.5959 151.69 38.5959C155.39 38.6571 156.064 37.8085 157.053 35.4464C157.201 35.3512 157.38 35.3154 157.553 35.3462C157.727 35.377 157.882 35.4722 157.989 35.6126C157.754 37.0714 157.343 38.4962 156.764 39.8556C156.125 39.8556 155.189 39.7944 153.964 39.7944H146.266C144.988 39.7944 143.204 39.7944 141.891 39.8819C141.771 39.7714 141.698 39.6184 141.688 39.4551C141.678 39.2918 141.732 39.1311 141.839 39.007L142.906 38.9021C144.28 38.7533 144.542 38.6658 144.542 35.5776L144.507 24.7646ZM174.016 24.2046C174.016 22.8311 174.016 22.2188 174.252 22.0525C174.99 21.7214 175.798 21.5772 176.605 21.6326C181.487 21.6326 184.846 24.4409 184.846 30.2148C184.846 35.149 182.511 38.8233 177.323 38.8233C174.217 38.8233 174.016 37.3098 174.016 34.4491V24.2046ZM170.595 35.6214C170.595 38.7096 170.341 38.7971 168.959 38.972L168.321 39.0508C168.119 39.2607 168.146 39.7856 168.382 39.9256C169.659 39.8644 171.006 39.8381 172.082 39.8381C172.634 39.8381 173.255 39.8381 173.955 39.9256C174.654 40.0131 175.442 40.0044 176.317 40.0044C178.807 40.1097 181.288 39.6303 183.56 38.6046C185.142 37.8465 186.475 36.6544 187.404 35.1673C188.333 33.6803 188.821 31.9596 188.809 30.2061C188.877 28.2987 188.332 26.4198 187.254 24.8452C186.175 23.2706 184.62 22.0833 182.817 21.4576C180.606 20.7036 178.274 20.3655 175.94 20.4603C173.08 20.4603 170.691 20.5478 168.644 20.7228C168.539 20.832 168.48 20.9778 168.48 21.1296C168.48 21.2813 168.539 21.4271 168.644 21.5364L169.257 21.5976C170.63 21.7726 170.656 22.1225 170.656 24.922L170.595 35.6214ZM196.482 31.3521C195.782 31.3521 195.694 31.3521 196.009 30.4773L197.234 27.0566C197.768 25.6831 197.995 24.957 198.109 24.7558H198.162C198.514 25.4926 198.789 26.2636 198.984 27.0566L200.217 30.556C200.454 31.2472 200.331 31.3084 199.518 31.3084L196.482 31.3521ZM199.894 32.6644C200.716 32.6644 200.769 32.6644 201.092 33.4518L202.457 37.4236C202.842 38.6746 202.754 38.8496 201.713 38.972L201.057 39.0508C200.969 39.1851 200.931 39.3459 200.948 39.5055C200.966 39.6652 201.038 39.8137 201.154 39.9256C202.168 39.9256 203.454 39.8381 204.705 39.8381C206.228 39.8381 207.33 39.8381 208.502 39.9256C208.61 39.8053 208.669 39.6496 208.669 39.4882C208.669 39.3268 208.61 39.1711 208.502 39.0508L208.065 38.972C206.578 38.7096 206.429 38.4996 205.755 36.5487L201.547 24.3009C201.084 22.9886 200.672 21.6151 200.244 20.3028C200.185 20.2277 200.109 20.1678 200.022 20.1283C199.935 20.0887 199.84 20.0705 199.745 20.0754C199.187 20.6976 198.488 21.1775 197.707 21.4751C197.695 22.2214 197.503 22.9538 197.147 23.6098L193.14 33.9942C192.536 35.5689 192.073 36.7937 191.714 37.546C191.277 38.5171 190.962 38.7796 190.113 38.9021L189.238 39.0333C189.132 39.1544 189.074 39.3098 189.074 39.4707C189.074 39.6316 189.132 39.787 189.238 39.9081C190.253 39.8469 191.163 39.8206 192.116 39.8206C193.315 39.8206 194.286 39.8206 195.213 39.9081C195.334 39.7977 195.407 39.6446 195.417 39.4813C195.426 39.3181 195.372 39.1574 195.266 39.0333L194.391 38.9021C193.306 38.7446 193.192 38.6571 193.779 36.9337L194.977 33.4343C195.231 32.6469 195.213 32.6469 195.966 32.6469L199.894 32.6644ZM235.264 39.0508C235.561 39.1733 235.526 39.7856 235.211 39.9256C233.951 39.8644 232.814 39.8381 231.642 39.8381C230.277 39.8381 229.017 39.8381 227.74 39.9256C227.504 39.8031 227.381 39.252 227.679 39.0508L228.466 38.9196C229.638 38.7358 229.717 38.5084 229.717 36.5137V24.5896H229.656C228.869 26.1993 228.466 27.0741 227.906 28.2377L225.404 33.338C224.407 35.3852 222.946 38.5871 222.421 39.9956C222.302 40.0529 222.172 40.0827 222.04 40.0827C221.909 40.0827 221.779 40.0529 221.66 39.9956C221.17 38.4209 219.91 35.5601 219.245 34.0992L216.621 28.5001C216.087 27.2929 215.3 25.4644 214.959 24.5896H214.897C214.836 26.0243 214.784 28.2989 214.722 29.5237C214.661 31.2734 214.6 33.8979 214.6 36.295C214.6 38.2284 214.6 38.6833 215.886 38.9196L216.848 39.0858C217.058 39.2695 217.058 39.8206 216.848 39.9606C215.763 39.8994 214.862 39.8731 213.786 39.8731C212.85 39.8731 211.8 39.8731 210.663 39.9606C210.538 39.855 210.458 39.7052 210.44 39.5424C210.422 39.3796 210.468 39.2161 210.567 39.0858L211.066 39.0333C212.465 38.8583 212.693 38.4209 212.876 36.6362C213.06 34.8515 213.174 32.9094 213.314 29.8736C213.436 27.8878 213.603 25.4994 213.603 23.6797C213.603 22.3062 213.174 21.7026 212.037 21.5276L211.039 21.3439C210.864 21.1514 210.891 20.5915 211.153 20.4691C212.028 20.5216 212.815 20.5565 213.9 20.5565C214.985 20.5565 215.938 20.5565 217.023 20.4691C217.251 22.17 217.794 23.8135 218.624 25.3157L221.844 32.052C222.071 32.5419 222.832 34.0117 223.208 34.6766C223.672 33.8017 224.083 33.0143 224.731 31.6496L227.46 26.0418C228.436 24.2708 229.224 22.4032 229.813 20.4691C230.61 20.5216 231.563 20.5565 232.219 20.5565C233.444 20.5565 234.468 20.5565 235.281 20.4691C235.365 20.5035 235.437 20.56 235.491 20.6324C235.545 20.7048 235.578 20.7905 235.587 20.8803C235.596 20.9701 235.58 21.0606 235.542 21.1423C235.503 21.2239 235.444 21.2936 235.369 21.3439L234.406 21.5014C233.129 21.6676 232.832 22.1663 232.832 23.7147C232.832 28.0365 232.884 32.3582 233.094 36.6712C233.19 38.6221 233.505 38.8321 234.433 38.9545L235.264 39.0508ZM241.51 24.7646C241.51 21.6676 241.248 21.5714 239.874 21.3789L239.411 21.3089C239.209 21.1164 239.236 20.5828 239.463 20.4341C240.014 20.4341 240.635 20.4866 241.274 20.4866H248.806C250.67 20.4866 252.367 20.4866 252.743 20.3991C252.866 20.8977 253.041 23.1986 253.216 24.4496C253.093 24.6946 252.516 24.7471 252.271 24.5721C251.816 22.8749 251.396 22.1488 250.442 21.9475C249.679 21.7573 248.893 21.6719 248.106 21.6938H246.147C244.896 21.6938 244.896 21.7463 244.896 23.4435V28.3777C244.896 29.1388 244.896 29.165 245.596 29.165H246.995C249.541 29.165 250.031 29.165 250.241 27.879L250.442 26.8904C250.573 26.7823 250.737 26.7231 250.906 26.7231C251.075 26.7231 251.239 26.7823 251.37 26.8904C251.37 27.6778 251.282 28.7276 251.282 29.8124C251.282 30.8972 251.335 31.947 251.37 32.8744C251.234 32.9712 251.072 33.0233 250.906 33.0233C250.74 33.0233 250.578 32.9712 250.442 32.8744L250.206 31.7633C249.996 30.5385 249.506 30.4773 246.96 30.4773H245.561C244.887 30.4773 244.861 30.5385 244.861 31.2647V34.974C244.861 36.4612 244.922 37.5111 245.351 38.0097C245.779 38.5084 246.226 38.6483 248.658 38.6483C252.358 38.7096 253.032 37.861 254.029 35.4989C254.177 35.4037 254.356 35.3679 254.53 35.3987C254.703 35.4295 254.859 35.5246 254.965 35.6651C254.72 37.1224 254.306 38.5463 253.732 39.9081C253.084 39.9081 252.157 39.8469 250.932 39.8469H243.207C241.921 39.8469 240.137 39.8469 238.833 39.9344C238.715 39.8228 238.643 39.671 238.632 39.5089C238.62 39.3468 238.67 39.1864 238.772 39.0595L239.857 38.9545C241.23 38.8058 241.493 38.7183 241.493 35.6301L241.51 24.7646ZM56.2528 4.32816C56.2528 2.50848 56.1216 2.45599 55.0106 2.21103L54.6344 2.14104C54.4507 2.00107 54.4769 1.5549 54.6956 1.47616C55.5705 1.5199 56.4453 1.5549 57.2589 1.5549C58.0725 1.5549 58.9211 1.5549 59.9534 1.47616C60.1634 1.5549 60.1896 2.00107 59.9534 2.14104L59.4898 2.21103C58.3525 2.4035 58.2475 2.50848 58.2475 4.32816V8.055C58.2475 10.6795 59.1223 12.4817 61.6856 12.4817C64.0565 12.4817 65.0888 10.6883 65.0888 8.10749V5.62293C65.0888 2.99839 64.9401 2.3685 63.794 2.21103L63.2429 2.14104C63.1992 2.09561 63.1657 2.04144 63.1445 1.98211C63.1233 1.92278 63.1149 1.85963 63.1198 1.79682C63.1248 1.734 63.143 1.67295 63.1732 1.61769C63.2035 1.56242 63.2451 1.51418 63.2953 1.47616C64.1702 1.5199 64.7476 1.5549 65.5175 1.5549C66.2873 1.5549 66.8647 1.5549 67.7046 1.47616C67.7526 1.51723 67.7911 1.56821 67.8176 1.62559C67.844 1.68298 67.8577 1.74542 67.8577 1.8086C67.8577 1.87179 67.844 1.93422 67.8176 1.99161C67.7911 2.049 67.7526 2.09998 67.7046 2.14104L66.9172 2.21103C66.2261 2.28977 66.0424 3.00714 66.0424 5.62293V8.24747C66.0424 11.6244 64.4764 13.3916 61.117 13.3916C59.7714 13.5142 58.4295 13.12 57.3639 12.2893C56.5765 11.5019 56.2353 10.2859 56.2353 8.56241L56.2528 4.32816ZM85.2627 5.62293C85.2627 2.99839 85.1052 2.31601 84.1254 2.21103L83.2506 2.14104C83.2069 2.09561 83.1734 2.04144 83.1522 1.98211C83.131 1.92278 83.1226 1.85963 83.1275 1.79682C83.1325 1.734 83.1507 1.67295 83.1809 1.61769C83.2112 1.56242 83.2528 1.51418 83.3031 1.47616C84.2829 1.5199 84.8865 1.5549 85.6651 1.5549C86.4438 1.5549 87.0124 1.5549 87.8523 1.47616C87.8967 1.51937 87.932 1.57106 87.9562 1.62816C87.9803 1.68526 87.9927 1.74661 87.9927 1.8086C87.9927 1.87059 87.9803 1.93195 87.9562 1.98905C87.932 2.04615 87.8967 2.09783 87.8523 2.14104L87.0649 2.21103C86.3738 2.28977 86.1901 3.00714 86.1901 5.62293V10.0584C86.1901 10.5833 86.1901 12.6829 86.2688 13.1291C86.2122 13.222 86.1272 13.2943 86.0264 13.3353C85.9256 13.3762 85.8143 13.3837 85.7089 13.3566C85.4202 12.9891 84.8865 12.438 83.2506 10.6708L79.2613 6.38404C78.2552 5.33423 77.5728 4.63435 77.2316 4.3544C77.1267 4.3544 77.1267 4.6431 77.1267 5.45671V8.95609C77.1267 11.5806 77.2841 12.2893 78.2552 12.368L79.13 12.4467C79.1765 12.4907 79.2125 12.5445 79.2354 12.6042C79.2584 12.6639 79.2677 12.728 79.2626 12.7917C79.2576 12.8555 79.2384 12.9173 79.2063 12.9726C79.1743 13.028 79.1303 13.0755 79.0776 13.1116C78.0977 13.0504 77.4853 13.0241 76.733 13.0241C75.9806 13.0241 75.4557 13.0241 74.5284 13.1116C74.4816 13.0698 74.4442 13.0185 74.4186 12.9612C74.393 12.904 74.3798 12.8419 74.3798 12.7792C74.3798 12.7164 74.393 12.6544 74.4186 12.5971C74.4442 12.5398 74.4816 12.4886 74.5284 12.4467L75.237 12.3417C75.9194 12.263 76.1118 11.5456 76.1118 8.92985V4.22318C76.1118 3.34833 76.1118 2.9809 75.5519 2.58721C75.2511 2.40301 74.919 2.2755 74.5721 2.21103L74.1784 2.14104C74.132 2.09707 74.096 2.04327 74.0731 1.98357C74.0501 1.92388 74.0408 1.85981 74.0459 1.79606C74.0509 1.73231 74.0701 1.6705 74.1021 1.61514C74.1342 1.55979 74.1782 1.5123 74.2309 1.47616C75.237 1.5549 75.9806 1.5549 76.5055 1.5549C76.8802 1.55533 77.2544 1.52902 77.6253 1.47616C78.3523 2.66972 79.2349 3.7612 80.2499 4.72184L82.7432 7.28514C83.2768 7.86253 84.8603 9.54224 85.1052 9.71721C85.2627 9.66472 85.2627 9.28853 85.2627 8.65864V5.62293ZM96.6182 4.32816C96.6182 2.50848 96.5132 2.4035 95.3847 2.21103L94.8773 2.14104C94.6936 2.00107 94.7198 1.5549 94.9385 1.47616C95.9621 1.5199 96.7844 1.5549 97.6243 1.5549C98.4641 1.5549 99.2952 1.5549 100.319 1.47616C100.529 1.5549 100.564 2.00107 100.371 2.14104L99.8726 2.21103C98.7353 2.4035 98.6304 2.50848 98.6304 4.32816V10.2421C98.6304 12.0705 98.7353 12.1668 99.8726 12.3592L100.371 12.438C100.415 12.4834 100.448 12.5376 100.47 12.5969C100.491 12.6562 100.499 12.7194 100.494 12.7822C100.489 12.845 100.471 12.9061 100.441 12.9613C100.411 13.0166 100.369 13.0648 100.319 13.1029C99.3215 13.0416 98.4379 13.0154 97.6243 13.0154C96.8107 13.0154 95.9621 13.0154 94.9385 13.1029C94.8876 13.0655 94.8453 13.0178 94.8142 12.9629C94.7832 12.9079 94.7641 12.847 94.7584 12.7842C94.7526 12.7214 94.7602 12.658 94.7807 12.5983C94.8012 12.5386 94.8341 12.484 94.8773 12.438L95.3584 12.3417C96.487 12.1493 96.592 12.053 96.592 10.2246L96.6182 4.32816ZM108.796 4.38065C108 2.63096 107.921 2.50848 107.274 2.34226L106.399 2.14104C106.355 2.09783 106.319 2.04615 106.295 1.98905C106.271 1.93195 106.259 1.87059 106.259 1.8086C106.259 1.74661 106.271 1.68526 106.295 1.62816C106.319 1.57106 106.355 1.51937 106.399 1.47616C107.081 1.5199 107.956 1.5549 108.77 1.5549C109.732 1.5549 110.52 1.5549 111.342 1.47616C111.394 1.51431 111.437 1.56431 111.466 1.62209C111.496 1.67986 111.511 1.74377 111.511 1.8086C111.511 1.87343 111.496 1.93734 111.466 1.99511C111.437 2.05289 111.394 2.10289 111.342 2.14104L110.782 2.21103C110.1 2.31601 110.1 2.66595 110.677 3.96072L111.981 6.88271C112.645 8.39619 113.092 9.37602 113.485 10.2421C114.019 9.13106 114.465 8.02875 114.964 6.9177C115.462 5.80665 116.267 3.87324 116.53 3.10337C116.713 2.55222 116.678 2.3685 115.891 2.22853L115.48 2.14104C115.43 2.0989 115.391 2.04557 115.366 1.98544C115.341 1.92531 115.331 1.8601 115.336 1.79517C115.341 1.73025 115.362 1.66747 115.396 1.61201C115.43 1.55655 115.477 1.50998 115.532 1.47616C116.302 1.5199 116.985 1.5549 117.693 1.5549C118.321 1.56037 118.949 1.53409 119.574 1.47616C119.633 1.50545 119.684 1.54774 119.723 1.59979C119.763 1.65184 119.79 1.71226 119.803 1.77644C119.815 1.84061 119.813 1.90683 119.796 1.97003C119.779 2.03323 119.748 2.09172 119.705 2.14104L118.962 2.28977C118.174 2.45599 118.017 2.6922 117.168 4.48563L115.174 8.84236C114.378 10.5308 113.608 12.4555 113.293 13.3303C113.201 13.4019 113.085 13.4363 112.969 13.4266C112.859 13.4272 112.752 13.3936 112.663 13.3303C112.418 12.6392 112.129 11.7906 111.788 11.0557L108.796 4.38065ZM127.115 4.32816C127.115 2.50848 127.01 2.42099 126.004 2.21103L125.637 2.14104C125.444 2.02731 125.488 1.58114 125.689 1.47616C126.083 1.47616 126.485 1.5199 126.879 1.5199H131.901C133.064 1.5199 134.114 1.5199 134.359 1.44117C134.359 1.75611 134.517 2.99839 134.648 4.13569C134.607 4.18556 134.556 4.2266 134.498 4.25636C134.441 4.28612 134.378 4.30399 134.313 4.30889C134.249 4.31379 134.184 4.30562 134.123 4.28488C134.061 4.26414 134.005 4.23125 133.957 4.18818C133.875 3.73802 133.715 3.30568 133.484 2.91091C133.064 2.28102 131.874 2.28102 131.245 2.28102H130.072C129.145 2.28102 129.119 2.28102 129.119 3.15586V6.09535C129.119 6.57651 129.119 6.629 129.617 6.629H130.868C132.268 6.629 132.391 6.41029 132.618 5.62293L132.758 5.12427C132.798 5.07642 132.849 5.03796 132.905 5.01158C132.962 4.98519 133.024 4.97152 133.086 4.97152C133.149 4.97152 133.21 4.98519 133.267 5.01158C133.324 5.03796 133.374 5.07642 133.414 5.12427C133.362 5.89413 133.362 6.36655 133.362 6.97894C133.362 7.59133 133.362 8.11624 133.414 8.87735C133.377 8.92683 133.33 8.96798 133.275 8.99816C133.221 9.02835 133.161 9.04692 133.1 9.05268C133.038 9.05844 132.976 9.05127 132.917 9.03163C132.858 9.01199 132.804 8.9803 132.758 8.93859L132.618 8.43118C132.399 7.64382 132.277 7.43386 130.868 7.43386H129.617C129.119 7.43386 129.119 7.5126 129.119 8.0375V9.97966C129.052 10.6275 129.154 11.2817 129.416 11.8781C129.652 12.1493 130.134 12.2543 131.63 12.2543C133.327 12.2543 134.307 12.1668 135.068 10.0584C135.117 10.0142 135.175 9.98156 135.238 9.96269C135.302 9.94382 135.368 9.93924 135.434 9.94929C135.499 9.95933 135.561 9.98375 135.616 10.0208C135.671 10.0578 135.716 10.1065 135.75 10.1634C135.645 11.1788 135.379 12.171 134.963 13.1029C134.149 13.1029 133.379 13.0416 132.644 13.0416H128.148C127.273 13.0416 126.485 13.0416 125.208 13.1291C124.998 13.0416 124.981 12.5954 125.164 12.4642L125.882 12.3855C127.01 12.2543 127.115 12.0968 127.115 10.2684V4.32816ZM146.099 2.97215C146.099 2.28977 146.292 2.23728 147.263 2.23728C147.613 2.19646 147.968 2.23034 148.304 2.33668C148.64 2.44301 148.95 2.61939 149.213 2.85417C149.475 3.08895 149.686 3.3768 149.829 3.69874C149.973 4.02067 150.046 4.36937 150.045 4.72184C150.045 6.54152 149.17 7.24139 147.42 7.24139C146.126 7.24139 146.091 7.24139 146.091 6.57651L146.099 2.97215ZM144.096 10.2421C144.096 12.0705 144 12.1143 142.854 12.3592L142.46 12.438C142.404 12.4755 142.359 12.5272 142.329 12.5878C142.299 12.6483 142.286 12.7157 142.29 12.783C142.295 12.8504 142.317 12.9154 142.354 12.9715C142.392 13.0277 142.443 13.073 142.504 13.1029C143.44 13.0416 144.254 13.0154 145.128 13.0154C146.003 13.0154 146.826 13.0154 147.937 13.1029C147.987 13.0648 148.029 13.0166 148.059 12.9613C148.089 12.9061 148.107 12.845 148.112 12.7822C148.117 12.7194 148.109 12.6562 148.088 12.5969C148.066 12.5376 148.033 12.4834 147.989 12.438L147.377 12.3592C146.239 12.193 146.134 12.0705 146.134 10.2421V8.36994C146.134 7.99376 146.196 7.95002 146.878 7.95002C147.075 7.9298 147.274 7.95741 147.459 8.03051C147.643 8.10361 147.807 8.22004 147.937 8.36994C148.488 9.24479 149.205 10.3733 149.861 11.2219C151.025 12.7004 151.978 13.1991 153.562 13.1991C153.937 13.2152 154.312 13.1709 154.673 13.0679C154.729 13.0121 154.76 12.9366 154.76 12.8579C154.76 12.7792 154.729 12.7037 154.673 12.6479C154.159 12.6192 153.669 12.4259 153.273 12.0968C151.92 10.8873 150.784 9.45519 149.914 7.86253C149.87 7.80805 149.846 7.74012 149.846 7.67007C149.846 7.60002 149.87 7.53208 149.914 7.4776C150.553 7.31767 151.124 6.95518 151.54 6.44429C151.956 5.9334 152.196 5.30154 152.223 4.6431C152.223 1.8436 149.599 1.47616 147.114 1.47616C145.662 1.47616 144.184 1.5199 142.74 1.63363C142.478 1.71237 142.521 2.26352 142.74 2.28977L143.484 2.4035C144.087 2.48223 144.114 2.9284 144.114 4.6431L144.096 10.2421ZM163.316 7.62633C162.048 6.96144 160.972 5.93787 160.972 4.46813C160.972 2.54347 162.459 1.18746 165.127 1.18746C165.958 1.2425 166.781 1.37726 167.586 1.58989C167.89 2.42972 168.018 3.32305 167.962 4.21443C167.921 4.2643 167.87 4.30534 167.812 4.3351C167.755 4.36486 167.692 4.38272 167.627 4.38762C167.563 4.39252 167.498 4.38436 167.437 4.36362C167.376 4.34288 167.319 4.30999 167.271 4.26692C167.189 3.66377 166.899 3.10794 166.452 2.69459C166.006 2.28124 165.429 2.03608 164.821 2.00107C163.255 2.00107 162.669 2.87591 162.669 3.75076C162.669 4.6256 163.386 5.29049 164.419 5.84164L166.055 6.71649C166.689 7.0231 167.225 7.50096 167.602 8.09612C167.98 8.69129 168.183 9.38005 168.189 10.0846C168.189 12.1405 166.501 13.4266 163.885 13.4266C162.813 13.4585 161.754 13.1756 160.841 12.6129C160.44 11.7639 160.254 10.8298 160.298 9.89218C160.33 9.83129 160.376 9.77945 160.433 9.74159C160.491 9.70373 160.556 9.6811 160.625 9.67584C160.693 9.67058 160.762 9.68287 160.824 9.71155C160.886 9.74022 160.94 9.78433 160.981 9.83968C161.182 10.7933 162.345 12.6742 164.13 12.6742C165.477 12.6742 166.343 11.9743 166.343 10.7583C166.343 9.88343 166.002 9.00858 164.497 8.28246L163.316 7.62633ZM177.139 4.32816C177.139 2.50848 177.025 2.4035 175.888 2.21103L175.398 2.14104C175.206 2.00107 175.241 1.5549 175.398 1.47616C176.439 1.5199 177.253 1.5549 178.093 1.5549C178.932 1.5549 179.755 1.5549 180.796 1.47616C181.006 1.5549 181.032 2.00107 180.796 2.14104L180.297 2.21103C179.16 2.4035 179.055 2.50848 179.055 4.32816V10.2421C179.055 12.0705 179.16 12.1668 180.297 12.3592L180.796 12.438C180.844 12.479 180.882 12.53 180.909 12.5874C180.935 12.6448 180.949 12.7072 180.949 12.7704C180.949 12.8336 180.935 12.896 180.909 12.9534C180.882 13.0108 180.844 13.0618 180.796 13.1029C179.79 13.0416 178.915 13.0154 178.093 13.0154C177.27 13.0154 176.439 13.0154 175.398 13.1029C175.351 13.061 175.314 13.0098 175.288 12.9525C175.263 12.8952 175.249 12.8332 175.249 12.7704C175.249 12.7077 175.263 12.6456 175.288 12.5883C175.314 12.5311 175.351 12.4798 175.398 12.438L175.888 12.3592C177.025 12.1668 177.139 12.0705 177.139 10.2421V4.32816ZM192.3 3.00714C192.3 2.31601 192.3 2.31601 191.749 2.31601H190.874C189.273 2.31601 188.582 2.48223 187.943 4.29316C187.894 4.33186 187.836 4.35955 187.775 4.37442C187.714 4.38929 187.65 4.391 187.588 4.37942C187.526 4.36785 187.467 4.34326 187.415 4.30728C187.363 4.2713 187.32 4.22474 187.287 4.17069C187.576 3.03339 187.873 1.71237 188.005 1.04749C188.073 0.996378 188.156 0.96875 188.241 0.96875C188.326 0.96875 188.409 0.996378 188.477 1.04749C188.477 1.58114 188.879 1.5549 189.929 1.5549H197.278C198.258 1.5549 198.441 1.5549 198.651 1.04749C198.727 0.999518 198.818 0.981041 198.907 0.995549C198.996 1.01006 199.076 1.05654 199.133 1.12622C198.898 2.14075 198.806 3.18325 198.861 4.22318C198.822 4.27241 198.772 4.31216 198.715 4.33948C198.659 4.36679 198.596 4.38098 198.533 4.38098C198.47 4.38098 198.408 4.36679 198.351 4.33948C198.295 4.31216 198.245 4.27241 198.205 4.22318C198.022 2.47348 197.33 2.28977 195.747 2.28977H194.872C194.365 2.28977 194.286 2.28977 194.286 2.98089V10.2421C194.286 12.0705 194.4 12.228 195.537 12.3592L196.246 12.438C196.289 12.4834 196.323 12.5376 196.344 12.5969C196.365 12.6562 196.374 12.7194 196.369 12.7822C196.364 12.845 196.346 12.9061 196.315 12.9613C196.285 13.0166 196.243 13.0648 196.193 13.1029C195.1 13.0416 194.111 13.0154 193.289 13.0154C192.466 13.0154 191.486 13.0154 190.384 13.1029C190.333 13.0657 190.29 13.0179 190.259 12.9625C190.228 12.9072 190.209 12.8458 190.204 12.7826C190.199 12.7193 190.208 12.6557 190.23 12.5962C190.252 12.5367 190.287 12.4827 190.332 12.438L191.04 12.3592C192.178 12.228 192.283 12.0705 192.283 10.2421L192.3 3.00714ZM209.71 9.50724C209.716 8.69499 209.458 7.9026 208.975 7.25014L207.041 3.68952C206.49 2.63096 206.228 2.4035 205.536 2.26352L204.854 2.14104C204.811 2.09445 204.779 2.03931 204.759 1.97928C204.739 1.91925 204.733 1.85569 204.739 1.79283C204.746 1.72997 204.766 1.66923 204.798 1.61463C204.83 1.56004 204.873 1.51284 204.924 1.47616C205.799 1.5199 206.403 1.5549 207.356 1.5549C208.152 1.5549 208.756 1.5549 209.613 1.47616C209.667 1.51309 209.712 1.56267 209.742 1.62061C209.773 1.67854 209.789 1.74308 209.789 1.8086C209.789 1.87413 209.773 1.93866 209.742 1.9966C209.712 2.05453 209.667 2.10412 209.613 2.14104L209.246 2.21103C208.66 2.34226 208.581 2.50848 209.01 3.32208L209.989 5.19425C210.383 5.99036 210.777 6.70774 211.171 7.39012C211.59 6.67274 211.993 6.04285 212.439 5.19425L213.498 3.26959C213.9 2.53472 213.944 2.28977 213.314 2.21103L212.763 2.14104C212.707 2.10277 212.662 2.05049 212.633 1.98947C212.604 1.92845 212.592 1.86084 212.597 1.79344C212.602 1.72604 212.625 1.66123 212.664 1.60553C212.702 1.54984 212.754 1.50522 212.815 1.47616C213.611 1.5199 214.215 1.5549 214.819 1.5549C215.422 1.5549 215.956 1.5549 216.691 1.47616C216.744 1.51159 216.789 1.55853 216.822 1.61352C216.855 1.66852 216.875 1.73017 216.88 1.79395C216.886 1.85773 216.878 1.92201 216.856 1.98208C216.833 2.04214 216.798 2.09646 216.752 2.14104L216.122 2.26352C215.3 2.42099 215.16 2.58721 214.372 3.90823L212.736 6.53277C211.774 8.055 211.713 8.31745 211.713 9.08732V10.5046C211.713 12.0705 211.818 12.2543 212.955 12.3592L213.62 12.438C213.662 12.4846 213.694 12.5394 213.714 12.5989C213.733 12.6584 213.74 12.7214 213.735 12.7838C213.729 12.8462 213.71 12.9068 213.68 12.9617C213.65 13.0166 213.609 13.0647 213.559 13.1029C212.404 13.0416 211.52 13.0154 210.707 13.0154C209.893 13.0154 209.036 13.0154 207.855 13.1029C207.804 13.0655 207.762 13.0178 207.731 12.9629C207.7 12.9079 207.68 12.847 207.675 12.7842C207.669 12.7214 207.676 12.658 207.697 12.5983C207.717 12.5386 207.75 12.484 207.794 12.438L208.467 12.3592C209.605 12.228 209.701 12.0705 209.701 10.5046L209.71 9.50724ZM232.333 1.8436C235.238 1.8436 236.585 4.69559 236.585 7.52134C236.585 11.1345 234.651 12.5167 232.648 12.5167C229.577 12.5167 228.344 9.58598 228.344 6.85646C228.335 3.15586 230.426 1.8436 232.333 1.8436ZM232.517 1.07373C228.685 1.07373 225.999 3.76826 225.999 7.28514C225.999 10.6183 228.422 13.2778 232.517 13.2778C236.244 13.2778 238.947 10.6533 238.947 7.15391C238.947 3.93448 236.768 1.10873 232.517 1.10873M245.622 4.31941C245.622 2.49973 245.491 2.44724 244.511 2.21103L244.196 2.13229C244.012 1.99232 244.038 1.54615 244.248 1.46741C244.607 1.46741 244.983 1.5199 245.386 1.5199H250.294C251.466 1.5199 252.463 1.5199 252.839 1.44117C252.839 1.75611 252.883 2.99839 252.971 4.14444C252.932 4.20219 252.88 4.24956 252.819 4.28233C252.758 4.31509 252.69 4.33224 252.621 4.33224C252.551 4.33224 252.483 4.31509 252.422 4.28233C252.361 4.24956 252.309 4.20219 252.271 4.14444C252.193 3.69724 252.036 3.26757 251.807 2.87591C251.352 2.21978 250.189 2.25477 249.559 2.25477H248.526C247.713 2.25477 247.652 2.25477 247.652 3.12962V6.19158C247.652 6.68149 247.652 6.72523 248.15 6.72523H249.576C250.976 6.72523 251.116 6.50652 251.326 5.72791L251.466 5.2205C251.51 5.1772 251.562 5.14387 251.62 5.1228C251.678 5.10172 251.74 5.09339 251.802 5.09837C251.863 5.10335 251.923 5.12153 251.977 5.15167C252.03 5.1818 252.077 5.22318 252.113 5.27299V9.02608C252.077 9.07588 252.03 9.11727 251.977 9.1474C251.923 9.17754 251.863 9.19571 251.802 9.2007C251.74 9.20568 251.678 9.19735 251.62 9.17627C251.562 9.1552 251.51 9.12187 251.466 9.07857L251.326 8.57991C251.125 7.7838 250.985 7.57383 249.576 7.57383H248.15C247.652 7.57383 247.652 7.65257 247.652 8.17748V10.2421C247.652 12.0705 247.757 12.2455 248.894 12.3505L249.707 12.438C249.751 12.4834 249.785 12.5376 249.806 12.5969C249.827 12.6562 249.835 12.7194 249.83 12.7822C249.826 12.845 249.807 12.9061 249.777 12.9613C249.747 13.0166 249.705 13.0648 249.655 13.1029C248.325 13.0416 247.459 13.0154 246.645 13.0154C245.832 13.0154 244.983 13.0154 243.951 13.1029C243.9 13.0655 243.858 13.0178 243.827 12.9629C243.796 12.9079 243.777 12.847 243.771 12.7842C243.765 12.7214 243.773 12.658 243.793 12.5983C243.814 12.5386 243.847 12.484 243.89 12.438L244.397 12.3505C245.526 12.1668 245.639 12.0705 245.639 10.2421L245.622 4.31941Z" fill="white"/>
</g>
</g>
<defs>
<clipPath id="clip0_793_1863">
<rect width="255" height="60" fill="white" transform="translate(0 0.800781)"/>
</clipPath>
<clipPath id="clip1_793_1863">
<rect width="255" height="60" fill="white" transform="translate(0 0.800781)"/>
</clipPath>
</defs>
</svg>
